# This file uses centimeters as units for non-parametric coordinates.

g default
v -7.573731 2.075465 24.808012
v 7.573731 2.075465 24.808012
v -7.573731 2.561031 24.808012
v 7.573731 2.561031 24.808012
v -7.573731 2.561031 -17.320153
v 7.573731 2.561031 -17.320153
v -7.573731 2.075465 -17.320153
v 7.573731 2.075465 -17.320153
vt 0.407964 0.360116
vt 0.407964 0.001992
vt 0.419444 0.001992
vt 0.419444 0.360116
vt 0.001590 0.001992
vt 0.359715 0.001992
vt 0.359715 0.998008
vt 0.001590 0.998008
vt 0.426102 0.360116
vt 0.426102 0.001992
vt 0.437582 0.001992
vt 0.437582 0.360116
vt 0.371689 0.998008
vt 0.371689 0.001992
vt 0.383169 0.001992
vt 0.383169 0.998008
vt 0.389827 0.998008
vt 0.389827 0.001992
vt 0.401307 0.001992
vt 0.401307 0.998008
vn 0.000000 0.000000 1.000000
vn 0.000000 0.000000 1.000000
vn 0.000000 0.000000 1.000000
vn 0.000000 0.000000 1.000000
vn 0.000000 1.000000 0.000000
vn 0.000000 1.000000 0.000000
vn 0.000000 1.000000 0.000000
vn 0.000000 1.000000 0.000000
vn 0.000000 0.000000 -1.000000
vn 0.000000 0.000000 -1.000000
vn 0.000000 0.000000 -1.000000
vn 0.000000 0.000000 -1.000000
vn 1.000000 0.000000 0.000000
vn 1.000000 0.000000 0.000000
vn 1.000000 0.000000 0.000000
vn 1.000000 0.000000 0.000000
vn -1.000000 0.000000 0.000000
vn -1.000000 0.000000 0.000000
vn -1.000000 0.000000 0.000000
vn -1.000000 0.000000 0.000000
g polySurface9 polySurface8
f 1/1/1 2/2/2 4/3/3 3/4/4
f 3/5/5 4/6/6 6/7/7 5/8/8
f 5/9/9 6/10/10 8/11/11 7/12/12
f 2/13/13 8/14/14 6/15/15 4/16/16
f 7/17/17 1/18/18 3/19/19 5/20/20
